#!OML:ASF I:\Actors\actors\Patient Classification 2\Patient 1\Session 1\actor1.ASF
:FULLY-SPECIFIED
:DEGREES
613
root -0.560162 18.6795 5.73489 1.15996 0.628067 -0.594514
lowerback 9.18306 2.07928 -1.14445
upperback -4.25089 2.70254 0.657609
thorax -9.79112 1.40429 0.871676
lowerneck -5.9557 -3.39853 -0.905379
upperneck 46.1787 -5.11415 0.054164
head 18.4609 -2.1792 -0.615121
rclavicle 3.24267e-015 -2.68359e-015
rhumerus -90.5642 25.21 -100.875
rradius 103.431
rwrist -47.084
rhand 9.66795 -62.5532
rfingers 7.12502
rthumb 34.8113 -89.1531
lclavicle 3.24267e-015 -2.68359e-015
lhumerus -83.9296 -27.227 103.835
lradius 109.89
lwrist 67.7039
lhand -8.24375 7.80796
lfingers 7.12502
lthumb 17.6743 37.0247
rfemur 0 0 0
rtibia 0
rfoot 0 0
rtoes 0
lfemur -3.6529 -4.77118 -13.8952
ltibia 21.1638
lfoot -22.9373 14.8549
ltoes -55.8611
614
root -0.573178 18.6877 5.73067 1.71944 0.586347 -0.559709
lowerback 8.92368 2.15655 -1.34079
upperback -4.58951 2.78093 0.607959
thorax -10.0213 1.45616 0.917078
lowerneck -5.73838 -3.43713 -0.851299
upperneck 46.202 -5.19416 0.0772761
head 18.4171 -2.20057 -0.620672
rclavicle -4.14963e-015 3.8266e-015
rhumerus -90.8125 24.4779 -101.021
rradius 102.8
rwrist -45.7917
rhand 9.04434 -62.1006
rfingers 7.12502
rthumb 34.2194 -88.8354
lclavicle -4.14963e-015 3.8266e-015
lhumerus -84.1866 -26.828 104.115
lradius 109.229
lwrist 66.718
lhand -8.63688 7.23238
lfingers 7.12502
lthumb 17.296 36.4827
rfemur 0 0 0
rtibia 0
rfoot 0 0
rtoes 0
lfemur -4.27793 -4.3573 -13.8
ltibia 21.1349
lfoot -22.693 14.6502
ltoes -55.9778
615
root -0.580236 18.6946 5.73149 2.26347 0.638329 -0.507938
lowerback 8.42753 2.19374 -1.5307
upperback -4.77581 2.81067 0.57445
thorax -9.9419 1.48426 0.996909
lowerneck -5.65396 -3.49643 -0.806766
upperneck 46.1505 -5.29161 0.0737634
head 18.3595 -2.23402 -0.642204
rclavicle 8.61607e-015 -2.68359e-015
rhumerus -90.8258 23.8409 -100.991
rradius 102.241
rwrist -44.6509
rhand 8.533 -62.0028
rfingers 7.12502
rthumb 33.7336 -88.8453
lclavicle 8.61607e-015 -2.68359e-015
lhumerus -84.0796 -26.3402 104.145
lradius 108.683
lwrist 65.7811
lhand -8.93104 6.48642
lfingers 7.12502
lthumb 17.0128 35.7614
rfemur 0 0 0
rtibia 0
rfoot 0 0
rtoes 0
lfemur -4.87529 -4.00551 -13.7396
ltibia 21.0866
lfoot -22.4472 14.3966
ltoes -56.0627
616
root -0.573641 18.6885 5.75916 2.04878 0.0653874 -0.558505
lowerback 8.10814 2.39299 -1.5667
upperback -4.53234 3.08198 0.628379
thorax -9.49932 1.61784 1.04699
lowerneck -5.77194 -3.51912 -0.873036
upperneck 46.1056 -5.32778 0.112954
head 18.3676 -2.25421 -0.619919
rclavicle 7.36124e-015 -6.36111e-015
rhumerus -90.6303 23.3695 -100.815
rradius 101.658
rwrist -43.5544
rhand 8.32325 -61.9144
rfingers 7.12502
rthumb 33.5343 -88.8003
lclavicle 7.36124e-015 -6.36111e-015
lhumerus -83.5908 -25.7016 103.997
lradius 108.193
lwrist 63.9795
lhand -9.2428 5.53834
lfingers 7.12502
lthumb 16.7127 34.8389
rfemur 0 0 0
rtibia 0
rfoot 0 0
rtoes 0
lfemur -4.38097 -3.82258 -13.7745
ltibia 21.0506
lfoot -22.758 14.6464
ltoes -55.9949
617
root -0.567647 18.6793 5.78126 1.55203 -0.407822 -0.614373
lowerback 7.864 2.50839 -1.74867
upperback -4.01844 3.2334 0.833659
thorax -8.82351 1.70417 1.36486
lowerneck -6.11236 -3.48826 -0.951314
upperneck 45.9753 -5.20589 -0.0101621
head 18.3699 -2.23244 -0.652055
rclavicle 2.17793e-014 -5.86415e-015
rhumerus -90.1669 23.2282 -100.437
rradius 101.063
rwrist -42.6897
rhand 7.96659 -61.6423
rfingers 7.12502
rthumb 33.1953 -88.6011
lclavicle 2.17793e-014 -5.86415e-015
lhumerus -82.6363 -24.909 103.742
lradius 107.637
lwrist 61.4397
lhand -9.58186 4.61774
lfingers 7.12502
lthumb 16.3863 33.9456
rfemur 0 0 0
rtibia 0
rfoot 0 0
rtoes 0
lfemur -3.61547 -3.9074 -13.8473
ltibia 21.0115
lfoot -23.1561 15.0377
ltoes -55.9309
618
root -0.564062 18.6755 5.78267 1.21443 -0.186166 -0.60435
lowerback 8.71526 2.51914 -1.45344
upperback -4.30029 3.2578 0.646832
thorax -9.604 1.69324 0.953419
lowerneck -5.62881 -3.55236 -0.844494
upperneck 46.0895 -5.36725 0.0771703
head 18.3156 -2.27118 -0.643539
rclavicle -1.48902e-014 -2.03754e-015
rhumerus -90.6219 22.1351 -100.601
rradius 100.491
rwrist -42.1293
rhand 7.16392 -61.2305
rfingers 7.12502
rthumb 32.4317 -88.3489
lclavicle -1.48902e-014 -2.03754e-015
lhumerus -83.0511 -24.6401 103.746
lradius 107.164
lwrist 59.4996
lhand -9.8529 4.06622
lfingers 7.12502
lthumb 16.1253 33.4154
rfemur 0 0 0
rtibia 0
rfoot 0 0
rtoes 0
lfemur -3.26734 -4.63609 -13.9875
ltibia 20.9882
lfoot -23.4439 15.4467
ltoes -55.8736
619
root -0.565402 18.6726 5.78636 1.05719 -0.158734 -0.629115
lowerback 9.05389 2.54906 -1.39523
upperback -4.41005 3.2985 0.605873
thorax -9.92061 1.70767 0.852174
lowerneck -5.40526 -3.57517 -0.835376
upperneck 46.1563 -5.42686 0.130581
head 18.3024 -2.28793 -0.623848
rclavicle -2.48108e-014 -7.05686e-015
rhumerus -90.6413 21.4426 -100.518
rradius 99.8708
rwrist -41.5541
rhand 6.47229 -60.8431
rfingers 7.12502
rthumb 31.7732 -88.0943
lclavicle -2.48108e-014 -7.05686e-015
lhumerus -83.008 -24.2417 103.544
lradius 106.62
lwrist 58.6268
lhand -9.97715 3.81261
lfingers 7.12502
lthumb 16.0056 33.1714
rfemur 0 0 0
rtibia 0
rfoot 0 0
rtoes 0
lfemur -3.08745 -4.64607 -13.966
ltibia 20.9916
lfoot -23.5169 15.3954
ltoes -55.8428
620
root -0.566294 18.6729 5.78732 1.08277 -0.0576881 -0.666436
lowerback 9.09599 2.52019 -1.36871
upperback -4.46238 3.26292 0.603951
thorax -10.0005 1.68897 0.838413
lowerneck -5.30894 -3.57042 -0.883519
upperneck 46.1773 -5.43349 0.191686
head 18.2961 -2.29188 -0.58483
rclavicle -3.81201e-014 -1.78906e-015
rhumerus -90.4217 20.9397 -100.348
rradius 99.2007
rwrist -40.2472
rhand 5.98997 -60.3664
rfingers 7.12502
rthumb 31.3138 -87.7076
lclavicle -3.81201e-014 -1.78906e-015
lhumerus -82.6599 -23.7517 103.257
lradius 105.917
lwrist 57.6857
lhand -9.97241 3.46626
lfingers 7.12502
lthumb 16.0102 32.8247
rfemur 0 0 0
rtibia 0
rfoot 0 0
rtoes 0
lfemur -3.15336 -4.65472 -13.9089
ltibia 21.0243
lfoot -23.5008 15.3169
ltoes -55.8281
621
root -0.566946 18.6739 5.7907 1.14546 0.0355152 -0.690369
lowerback 9.06581 2.49676 -1.33848
upperback -4.51528 3.23495 0.59074
thorax -10.0374 1.67341 0.81237
lowerneck -5.21105 -3.56016 -0.919018
upperneck 46.1734 -5.43195 0.251095
head 18.2724 -2.29092 -0.547051
rclavicle 2.24596e-014 -6.85807e-015
rhumerus -90.1459 20.374 -100.159
rradius 98.4646
rwrist -38.5207
rhand 5.58038 -59.6893
rfingers 7.12502
rthumb 30.9234 -87.1053
lclavicle 2.24596e-014 -6.85807e-015
lhumerus -82.3373 -23.3154 103.079
lradius 105.036
lwrist 55.8618
lhand -10.1763 2.84354
lfingers 7.12502
lthumb 15.8138 32.2177
rfemur 0 0 0
rtibia 0
rfoot 0 0
rtoes 0
lfemur -3.24847 -4.70142 -13.8697
ltibia 21.0528
lfoot -23.4823 15.2958
ltoes -55.8782
622
root -0.568273 18.6745 5.79563 1.18437 0.114634 -0.697615
lowerback 9.01732 2.48254 -1.34911
upperback -4.54049 3.21493 0.5883
thorax -10.0364 1.66468 0.82076
lowerneck -5.15824 -3.55653 -0.919636
upperneck 46.1709 -5.4236 0.251072
head 18.2566 -2.28798 -0.543933
rclavicle 2.17328e-014 4.89507e-015
rhumerus -89.7925 19.7953 -99.9306
rradius 97.6927
rwrist -37.4812
rhand 5.33518 -59.302
rfingers 7.12502
rthumb 30.6896 -86.7622
lclavicle 2.17328e-014 4.89507e-015
lhumerus -82.1246 -23.0368 103.037
lradius 104.055
lwrist 53.783
lhand -10.8757 1.99634
lfingers 7.12502
lthumb 15.1403 31.4225
rfemur 0 0 0
rtibia 0
rfoot 0 0
rtoes 0
lfemur -3.30469 -4.74725 -13.8506
ltibia 21.0789
lfoot -23.4848 15.2687
ltoes -55.8772
623
root -0.569993 18.6753 5.79907 1.22748 0.153079 -0.671165
lowerback 8.96778 2.47881 -1.38418
upperback -4.56243 3.20419 0.568719
thorax -10.0318 1.66132 0.822962
lowerneck -5.11615 -3.55903 -0.927247
upperneck 46.1703 -5.43051 0.265349
head 18.2462 -2.29076 -0.535633
rclavicle -3.49178e-014 -1.91579e-014
rhumerus -89.355 19.2574 -99.7141
rradius 96.9176
rwrist -37.4214
rhand 4.8175 -59.2983
rfingers 7.12502
rthumb 30.1959 -86.8499
lclavicle -3.49178e-014 -1.91579e-014
lhumerus -81.9159 -22.9051 103.038
lradius 102.924
lwrist 52.2192
lhand -11.629 1.09999
lfingers 7.12502
lthumb 14.4145 30.5794
rfemur 0 0 0
rtibia 0
rfoot 0 0
rtoes 0
lfemur -3.35556 -4.81204 -13.8768
ltibia 21.0894
lfoot -23.5046 15.2902
ltoes -55.8523
624
root -0.569924 18.6748 5.8041 1.20132 0.0907299 -0.655074
lowerback 8.96938 2.5017 -1.3646
upperback -4.57453 3.2349 0.539918
thorax -10.044 1.67374 0.775384
lowerneck -5.02521 -3.54731 -0.958961
upperneck 46.1974 -5.41985 0.303185
head 18.243 -2.28767 -0.508182
rclavicle -8.62461e-015 -3.2551e-015
rhumerus -88.8718 18.6997 -99.4851
rradius 96.1248
rwrist -37.292
rhand 4.47088 -59.4868
rfingers 7.12502
rthumb 29.8652 -87.0984
lclavicle -8.62461e-015 -3.2551e-015
lhumerus -81.5941 -22.7564 103.016
lradius 101.601
lwrist 51.0931
lhand -12.0218 0.434574
lfingers 7.12502
lthumb 14.036 29.9406
rfemur 0 0 0
rtibia 0
rfoot 0 0
rtoes 0
lfemur -3.29119 -4.89455 -13.9214
ltibia 21.0908
lfoot -23.5704 15.3801
ltoes -55.7999
625
root -0.565696 18.6679 5.81671 0.777491 -0.209058 -0.697966
lowerback 9.23719 2.60376 -1.25504
upperback -4.45075 3.38349 0.548011
thorax -10.0643 1.7368 0.687299
lowerneck -4.90147 -3.5211 -0.956552
upperneck 46.2485 -5.35747 0.258534
head 18.2397 -2.26769 -0.517175
rclavicle -3.68388e-014 -3.10601e-016
rhumerus -88.3365 18.1488 -99.2302
rradius 95.2792
rwrist -36.4559
rhand 4.87965 -59.8333
rfingers 7.12502
rthumb 30.2552 -87.3741
lclavicle -3.68388e-014 -3.10601e-016
lhumerus -81.171 -22.544 103.017
lradius 100.172
lwrist 50.1117
lhand -12.2282 0.0110545
lfingers 7.12502
lthumb 13.8371 29.5308
rfemur 0 0 0
rtibia 0
rfoot 0 0
rtoes 0
lfemur -2.68474 -4.99785 -13.9888
ltibia 21.0911
lfoot -23.8329 15.5737
ltoes -55.6445
626
root -0.566947 18.6682 5.81831 0.763281 -0.207871 -0.69614
lowerback 9.26698 2.60525 -1.25101
upperback -4.4672 3.38537 0.542792
thorax -10.0997 1.73721 0.677287
lowerneck -4.81657 -3.49667 -0.914958
upperneck 46.2771 -5.29622 0.189366
head 18.2291 -2.24449 -0.545802
rclavicle -1.20901e-015 1.45237e-014
rhumerus -87.9008 17.6176 -99.3812
rradius 94.5598
rwrist -36.9153
rhand 1.60849 -59.3425
rfingers 7.12502
rthumb 27.1301 -87.4126
lclavicle -1.20901e-015 1.45237e-014
lhumerus -80.7246 -22.3208 103.065
lradius 98.6885
lwrist 49.2556
lhand -12.4535 -0.422715
lfingers 7.12502
lthumb 13.62 29.1117
rfemur 0 0 0
rtibia 0
rfoot 0 0
rtoes 0
lfemur -2.67247 -5.04731 -13.9971
ltibia 21.1225
lfoot -23.8828 15.6043
ltoes -55.6322
627
root -0.571523 18.6721 5.81244 0.978583 -0.0332596 -0.673267
lowerback 9.19732 2.53382 -1.27292
upperback -4.56237 3.28512 0.513634
thorax -10.1602 1.68996 0.677154
lowerneck -4.81963 -3.46145 -0.847435
upperneck 46.3037 -5.2386 0.148223
head 18.2412 -2.21422 -0.56909
rclavicle -2.13123e-014 9.43606e-015
rhumerus -87.2807 17.0992 -99.3211
rradius 93.5853
rwrist -36.6539
rhand 0.119836 -58.5042
rfingers 7.12502
rthumb 25.7052 -86.7884
lclavicle -2.13123e-014 9.43606e-015
lhumerus -80.2151 -22.0397 103.111
lradius 97.0931
lwrist 48.6108
lhand -12.8738 -0.895986
lfingers 7.12502
lthumb 13.2148 28.6652
rfemur 0 0 0
rtibia 0
rfoot 0 0
rtoes 0
lfemur -3.01136 -5.03891 -13.9593
ltibia 21.182
lfoot -23.7717 15.5493
ltoes -55.737
628
root -0.577668 18.6783 5.80267 1.23718 0.158635 -0.768193
lowerback 9.15762 2.44361 -1.17217
upperback -4.68533 3.17839 0.509782
thorax -10.2635 1.63241 0.634581
lowerneck -4.83385 -3.41607 -0.792192
upperneck 46.3479 -5.18289 0.15143
head 18.2709 -2.18093 -0.570174
rclavicle 3.04421e-014 5.42542e-015
rhumerus -86.4974 16.6185 -99.0458
rradius 92.4659
rwrist -35.8331
rhand 0.503353 -58.0883
rfingers 7.12502
rthumb 26.0724 -86.3189
lclavicle 3.04421e-014 5.42542e-015
lhumerus -79.6644 -21.7186 103.165
lradius 95.4627
lwrist 48.1285
lhand -13.5635 -1.26434
lfingers 7.12502
lthumb 12.55 28.3387
rfemur 0 0 0
rtibia 0
rfoot 0 0
rtoes 0
lfemur -3.42006 -4.91953 -13.7554
ltibia 21.2407
lfoot -23.5292 15.3539
ltoes -55.7708
